<svg xmlns="http://www.w3.org/2000/svg" xmlns:svg="http://www.w3.org/2000/svg" xmlns:xlink="http://www.w3.org/1999/xlink" id="svg12360" width="48" height="48"><defs id="defs12362"><radialGradient id="radialGradient5031" cx="605.714" cy="486.648" r="117.143" fx="605.714" fy="486.648" gradientTransform="matrix(-2.774389,0,0,1.969706,112.7623,-872.8854)" gradientUnits="userSpaceOnUse" xlink:href="#linearGradient5060"/><linearGradient id="linearGradient5060"><stop id="stop5062" offset="0" stop-color="#000" stop-opacity="1"/><stop id="stop5064" offset="1" stop-color="#000" stop-opacity="0"/></linearGradient><radialGradient id="radialGradient5029" cx="605.714" cy="486.648" r="117.143" fx="605.714" fy="486.648" gradientTransform="matrix(2.774389,0,0,1.969706,-1891.633,-872.8854)" gradientUnits="userSpaceOnUse" xlink:href="#linearGradient5060"/><linearGradient id="linearGradient5048"><stop id="stop5050" offset="0" stop-color="#000" stop-opacity="0"/><stop id="stop5056" offset=".5" stop-color="#000" stop-opacity="1"/><stop id="stop5052" offset="1" stop-color="#000" stop-opacity="0"/></linearGradient><linearGradient id="linearGradient5027" x1="302.857" x2="302.857" y1="366.648" y2="609.505" gradientTransform="matrix(2.774389,0,0,1.969706,-1892.179,-872.8854)" gradientUnits="userSpaceOnUse" xlink:href="#linearGradient5048"/><linearGradient id="linearGradient2259"><stop id="stop2261" offset="0" stop-color="#fff" stop-opacity="1"/><stop id="stop2263" offset="1" stop-color="#fff" stop-opacity="0"/></linearGradient><linearGradient id="linearGradient2251"><stop id="stop2253" offset="0" stop-color="#fff" stop-opacity="1"/><stop id="stop2255" offset="1" stop-color="#fff" stop-opacity="0"/></linearGradient><linearGradient id="linearGradient2239"><stop id="stop2241" offset="0" stop-color="#fff" stop-opacity="1"/><stop id="stop2243" offset="1" stop-color="#fff" stop-opacity="0"/></linearGradient><linearGradient id="linearGradient2224"><stop id="stop2226" offset="0" stop-color="#7c7c7c" stop-opacity="1"/><stop id="stop2228" offset="1" stop-color="#b8b8b8" stop-opacity="1"/></linearGradient><linearGradient id="linearGradient2216"><stop id="stop2218" offset="0" stop-color="#000" stop-opacity="1"/><stop id="stop2220" offset="1" stop-color="#000" stop-opacity="0"/></linearGradient><linearGradient id="linearGradient15234"><stop id="stop15236" offset="0" stop-color="#97978a" stop-opacity="1"/><stop id="stop15242" offset=".5" stop-color="#c2c2b9" stop-opacity="1"/><stop id="stop15238" offset="1" stop-color="#7d7d6f" stop-opacity="1"/></linearGradient><linearGradient id="linearGradient15218"><stop id="stop15220" offset="0" stop-color="#f0f0ef" stop-opacity="1"/><stop id="stop2269" offset=".599" stop-color="#e8e8e8" stop-opacity="1"/><stop id="stop2267" offset=".828" stop-color="#fff" stop-opacity="1"/><stop id="stop15222" offset="1" stop-color="#d8d8d3" stop-opacity="1"/></linearGradient><linearGradient id="linearGradient14484"><stop id="stop14486" offset="0" stop-color="#c68827" stop-opacity="1"/><stop id="stop14488" offset="1" stop-color="#89601f" stop-opacity="1"/></linearGradient><linearGradient id="linearGradient13746"><stop id="stop13748" offset="0" stop-color="#646459" stop-opacity="1"/><stop id="stop13750" offset="1" stop-color="#646459" stop-opacity="0"/></linearGradient><radialGradient id="radialGradient13752" cx="24.648" cy="45.273" r="21.011" fx="24.648" fy="45.273" gradientTransform="matrix(1.000000,0.000000,0.000000,0.110577,4.987330e-17,40.26648)" gradientUnits="userSpaceOnUse" xlink:href="#linearGradient13746"/><linearGradient id="linearGradient14490" x1="6.107" x2="33.857" y1="10.451" y2="37.88" gradientUnits="userSpaceOnUse" xlink:href="#linearGradient14484"/><linearGradient id="linearGradient15224" x1="22.308" x2="35.785" y1="18.992" y2="39.498" gradientTransform="matrix(1.065698,0.000000,0.000000,0.987595,-1.564439,7.487332e-2)" gradientUnits="userSpaceOnUse" xlink:href="#linearGradient15218"/><linearGradient id="linearGradient15240" x1="25.405" x2="25.464" y1="3.818" y2="9.323" gradientTransform="matrix(1.052632,0.000000,0.000000,1.000000,-1.789474,0.000000)" gradientUnits="userSpaceOnUse" xlink:href="#linearGradient15234"/><linearGradient id="linearGradient2222" x1="36.813" x2="39.063" y1="39.156" y2="42.063" gradientUnits="userSpaceOnUse" xlink:href="#linearGradient2216"/><linearGradient id="linearGradient2230" x1="35.997" x2="33.665" y1="40.458" y2="37.771" gradientUnits="userSpaceOnUse" xlink:href="#linearGradient2224"/><linearGradient id="linearGradient2245" x1="25.683" x2="25.692" y1="12.172" y2="-.203" gradientUnits="userSpaceOnUse" xlink:href="#linearGradient2239"/><linearGradient id="linearGradient2257" x1="33.396" x2="34.17" y1="36.921" y2="38.07" gradientUnits="userSpaceOnUse" xlink:href="#linearGradient2251"/><linearGradient id="linearGradient2265" x1="26.076" x2="30.811" y1="26.697" y2="42.007" gradientUnits="userSpaceOnUse" xlink:href="#linearGradient2259"/><linearGradient id="linearGradient2283" x1="25.405" x2="25.405" y1="3.818" y2="6.481" gradientTransform="matrix(0.538743,0.000000,0.000000,0.511806,10.80080,-0.582640)" gradientUnits="userSpaceOnUse" xlink:href="#linearGradient15234"/><linearGradient id="linearGradient2287" x1="25.405" x2="25.464" y1="3.818" y2="9.323" gradientTransform="matrix(1.005222,0.000000,0.000000,0.883928,-0.627923,0.843750)" gradientUnits="userSpaceOnUse" xlink:href="#linearGradient15234"/></defs><g id="layer1"><g id="g5022" display="inline" transform="matrix(2.325216e-2,0,0,1.485743e-2,44.80627,43.06039)"><rect stroke-linejoin="miter" style="marker:none" id="rect4173" width="1339.633" height="478.357" x="-1559.252" y="-150.697" fill="url(#linearGradient5027)" fill-opacity="1" fill-rule="nonzero" stroke="none" stroke-dasharray="none" stroke-dashoffset="0" stroke-linecap="round" stroke-miterlimit="4" stroke-opacity="1" stroke-width="1" marker-end="none" marker-mid="none" marker-start="none" color="#000" display="inline" opacity=".402" overflow="visible" visibility="visible"/><path id="path5058" fill="url(#radialGradient5029)" fill-opacity="1" fill-rule="nonzero" stroke="none" stroke-dasharray="none" stroke-dashoffset="0" stroke-linecap="round" stroke-linejoin="miter" stroke-miterlimit="4" stroke-opacity="1" stroke-width="1" marker-end="none" marker-mid="none" marker-start="none" d="M -219.61876,-150.68038 C -219.61876,-150.68038 -219.61876,327.65041 -219.61876,327.65041 C -76.744594,328.55086 125.78146,220.48075 125.78138,88.454235 C 125.78138,-43.572302 -33.655436,-150.68036 -219.61876,-150.68038 z" color="#000" display="inline" opacity=".402" overflow="visible" visibility="visible" style="marker:none"/><path id="path5018" fill="url(#radialGradient5031)" fill-opacity="1" fill-rule="nonzero" stroke="none" stroke-dasharray="none" stroke-dashoffset="0" stroke-linecap="round" stroke-linejoin="miter" stroke-miterlimit="4" stroke-opacity="1" stroke-width="1" marker-end="none" marker-mid="none" marker-start="none" d="M -1559.2523,-150.68038 C -1559.2523,-150.68038 -1559.2523,327.65041 -1559.2523,327.65041 C -1702.1265,328.55086 -1904.6525,220.48075 -1904.6525,88.454235 C -1904.6525,-43.572302 -1745.2157,-150.68036 -1559.2523,-150.68038 z" color="#000" display="inline" opacity=".402" overflow="visible" visibility="visible" style="marker:none"/></g><rect id="rect12368" width="39.036" height="41.045" x="4.464" y="4.5" fill="url(#linearGradient14490)" fill-opacity="1" fill-rule="evenodd" stroke="#714c16" stroke-dasharray="none" stroke-dashoffset="0" stroke-linecap="butt" stroke-linejoin="miter" stroke-miterlimit="4" stroke-opacity="1" stroke-width="1" opacity="1" rx="1.388" ry="1.388"/><rect id="rect12413" width="30.952" height="35.977" x="8.532" y="6.53" fill="url(#linearGradient15224)" fill-opacity="1" fill-rule="evenodd" stroke="#888a85" stroke-dasharray="none" stroke-dashoffset="0" stroke-linecap="butt" stroke-linejoin="miter" stroke-miterlimit="4" stroke-opacity="1" stroke-width="1" opacity="1" rx=".567" ry=".567"/><rect id="rect13756" width="12" height="4" x="18" y="0" fill="#5c5c5c" fill-opacity="1" fill-rule="evenodd" stroke="none" stroke-dasharray="none" stroke-dashoffset="0" stroke-linecap="butt" stroke-linejoin="miter" stroke-miterlimit="4" stroke-opacity="1" stroke-width="1" opacity="1" rx=".984" ry=".984"/><rect id="rect15244" width="29.014" height="34.041" x="9.517" y="7.467" fill="none" fill-opacity="1" fill-rule="evenodd" stroke="url(#linearGradient2265)" stroke-dasharray="none" stroke-dashoffset="0" stroke-linecap="butt" stroke-linejoin="miter" stroke-miterlimit="4" stroke-opacity="1" stroke-width="1" opacity="1" rx="0" ry="0"/><rect id="rect15974" width="37.086" height="39.093" x="5.439" y="5.431" fill="none" fill-opacity="1" fill-rule="evenodd" stroke="#c68827" stroke-dasharray="none" stroke-dashoffset="0" stroke-linecap="butt" stroke-linejoin="miter" stroke-miterlimit="4" stroke-opacity="1" stroke-width="1" opacity="1" rx=".479" ry=".479"/><rect id="rect2208" width="18.947" height="7" x="14.791" y="4.472" fill="#000" fill-opacity="1" fill-rule="evenodd" stroke="#000" stroke-dasharray="none" stroke-dashoffset="0" stroke-linecap="butt" stroke-linejoin="miter" stroke-miterlimit="4" stroke-opacity="1" stroke-width="1" opacity=".108" rx="1.388" ry="1.388"/><rect id="rect2285" width="18.947" height="7" x="14.526" y="3.5" fill="url(#linearGradient15240)" fill-opacity="1" fill-rule="evenodd" stroke="#5c5c5c" stroke-dasharray="none" stroke-dashoffset="0" stroke-linecap="butt" stroke-linejoin="miter" stroke-miterlimit="4" stroke-opacity="1" stroke-width="1" opacity="1" rx="1.388" ry="1.388"/><rect id="rect2281" width="9.697" height="3.583" x="19.151" y="1.209" fill="url(#linearGradient2283)" fill-opacity="1" fill-rule="evenodd" stroke="none" stroke-dasharray="none" stroke-dashoffset="0" stroke-linecap="butt" stroke-linejoin="miter" stroke-miterlimit="4" stroke-opacity="1" stroke-width="1" opacity="1" rx=".325" ry=".325"/><rect id="rect13754" width="18.094" height="6.188" x="14.953" y="3.938" fill="url(#linearGradient2287)" fill-opacity="1" fill-rule="evenodd" stroke="none" stroke-dasharray="none" stroke-dashoffset="0" stroke-linecap="butt" stroke-linejoin="miter" stroke-miterlimit="4" stroke-opacity="1" stroke-width="1" opacity="1" rx="1.013" ry="1.013"/><path id="path2212" fill="url(#linearGradient2222)" fill-opacity="1" fill-rule="evenodd" stroke="none" stroke-dasharray="none" stroke-dashoffset="0" stroke-linecap="butt" stroke-linejoin="miter" stroke-miterlimit="4" stroke-opacity="1" stroke-width="1" marker-end="none" marker-mid="none" marker-start="none" d="M 39.018306,36.25 L 39.0625,42.0625 L 30.5625,42.018306 L 39.018306,36.25 z" color="#000" display="inline" opacity=".489" overflow="visible" visibility="visible" style="marker:none"/><path id="path2210" fill="url(#linearGradient2230)" fill-opacity="1" fill-rule="evenodd" stroke="#868a84" stroke-dasharray="none" stroke-dashoffset="0" stroke-linecap="butt" stroke-linejoin="miter" stroke-miterlimit="4" stroke-opacity="1" stroke-width="1" marker-end="none" marker-mid="none" marker-start="none" d="M 30.059082,42.086864 C 31.850223,42.254516 39.048809,37.717278 39.539922,33.698855 C 37.97666,36.121952 34.584971,35.667446 30.476213,35.826456 C 30.476213,35.826456 30.871582,41.586864 30.059082,42.086864 z" color="#000" display="inline" opacity="1" overflow="visible" visibility="visible" style="marker:none"/><path id="rect2232" fill="none" fill-opacity="1" fill-rule="evenodd" stroke="url(#linearGradient2245)" stroke-dasharray="none" stroke-dashoffset="0" stroke-linecap="butt" stroke-linejoin="miter" stroke-miterlimit="4" stroke-opacity="1" stroke-width="1" d="M 19.46875 1.46875 C 19.466654 1.4708456 19.470414 1.4975336 19.46875 1.5 C 19.46758 1.502776 19.438116 1.4969757 19.4375 1.5 L 19.4375 4.375 C 19.4375 4.3814229 19.46641 4.4006981 19.46875 4.40625 C 19.471216 4.4079135 19.465974 4.4363298 19.46875 4.4375 L 15.9375 4.4375 C 15.91974 4.4375 15.892285 4.4357551 15.875 4.4375 C 15.840968 4.4426713 15.781454 4.4572762 15.75 4.46875 C 15.611832 4.5269964 15.482328 4.6677699 15.4375 4.8125 C 15.426991 4.8535348 15.4375 4.9243489 15.4375 4.96875 L 15.4375 9.125 C 15.4375 9.1427605 15.435755 9.1702147 15.4375 9.1875 C 15.442671 9.2215321 15.457276 9.2810456 15.46875 9.3125 C 15.478458 9.3355281 15.487176 9.3851004 15.5 9.40625 C 15.5046 9.41307 15.526336 9.4309205 15.53125 9.4375 C 15.552124 9.4628138 15.599686 9.5103764 15.625 9.53125 C 15.638159 9.5410789 15.6734 9.5539504 15.6875 9.5625 C 15.702038 9.5703781 15.734648 9.5872782 15.75 9.59375 C 15.781454 9.6052238 15.840968 9.6198287 15.875 9.625 C 15.892285 9.6267449 15.91974 9.625 15.9375 9.625 L 32.0625 9.625 C 32.08026 9.625 32.107715 9.6267449 32.125 9.625 C 32.159032 9.6198287 32.218546 9.6052238 32.25 9.59375 C 32.265352 9.5872782 32.297962 9.5703781 32.3125 9.5625 C 32.3266 9.5539504 32.361841 9.5410789 32.375 9.53125 C 32.400314 9.5103764 32.447876 9.4628138 32.46875 9.4375 C 32.473664 9.4309205 32.4954 9.41307 32.5 9.40625 C 32.512824 9.3851004 32.521542 9.3355281 32.53125 9.3125 C 32.542724 9.2810456 32.557329 9.2215321 32.5625 9.1875 C 32.564245 9.1702147 32.5625 9.1427605 32.5625 9.125 L 32.5625 4.96875 C 32.5625 4.9243489 32.573009 4.8535348 32.5625 4.8125 C 32.517672 4.6677698 32.388168 4.5269964 32.25 4.46875 C 32.218546 4.4572762 32.159032 4.4426713 32.125 4.4375 C 32.107715 4.4357551 32.08026 4.4375 32.0625 4.4375 L 28.53125 4.4375 C 28.534026 4.4363298 28.528784 4.4079135 28.53125 4.40625 C 28.533591 4.4006981 28.5625 4.3814229 28.5625 4.375 L 28.5625 1.5 C 28.561884 1.4969757 28.53242 1.502776 28.53125 1.5 C 28.529586 1.4975336 28.533346 1.4708456 28.53125 1.46875 C 28.528474 1.4675798 28.503024 1.4693657 28.5 1.46875 L 19.5 1.46875 C 19.496976 1.4693657 19.471526 1.4675798 19.46875 1.46875 z" opacity=".317"/><path id="path2247" fill="none" fill-opacity="1" fill-rule="evenodd" stroke="url(#linearGradient2257)" stroke-dasharray="none" stroke-dashoffset="0" stroke-linecap="butt" stroke-linejoin="miter" stroke-miterlimit="4" stroke-opacity="1" stroke-width="1" marker-end="none" marker-mid="none" marker-start="none" d="M 31.509519,40.68705 C 32.879298,40.003221 36.038783,38.086016 37.338164,36.205012 C 35.545641,36.581496 34.347243,36.794585 31.610576,36.900494 C 31.610576,36.900494 31.697137,39.91208 31.509519,40.68705 z" color="#000" display="inline" opacity=".369" overflow="visible" visibility="visible" style="marker:none"/><rect stroke-linejoin="miter" style="marker:none" id="rect2271" width="21" height="2" x="14" y="15" fill="#000" fill-opacity="1" fill-rule="evenodd" stroke="none" stroke-dasharray="none" stroke-dashoffset="0" stroke-linecap="butt" stroke-miterlimit="4" stroke-opacity="1" stroke-width="1" marker-end="none" marker-mid="none" marker-start="none" color="#000" display="inline" opacity=".17" overflow="visible" visibility="visible"/><rect stroke-linejoin="miter" style="marker:none" id="rect2273" width="20" height="2" x="14" y="19" fill="#000" fill-opacity="1" fill-rule="evenodd" stroke="none" stroke-dasharray="none" stroke-dashoffset="0" stroke-linecap="butt" stroke-miterlimit="4" stroke-opacity="1" stroke-width="1" marker-end="none" marker-mid="none" marker-start="none" color="#000" display="inline" opacity=".17" overflow="visible" visibility="visible"/><rect stroke-linejoin="miter" style="marker:none" id="rect2275" width="18" height="2" x="14" y="23" fill="#000" fill-opacity="1" fill-rule="evenodd" stroke="none" stroke-dasharray="none" stroke-dashoffset="0" stroke-linecap="butt" stroke-miterlimit="4" stroke-opacity="1" stroke-width="1" marker-end="none" marker-mid="none" marker-start="none" color="#000" display="inline" opacity=".17" overflow="visible" visibility="visible"/><rect stroke-linejoin="miter" style="marker:none" id="rect2277" width="21" height="2" x="14" y="27" fill="#000" fill-opacity="1" fill-rule="evenodd" stroke="none" stroke-dasharray="none" stroke-dashoffset="0" stroke-linecap="butt" stroke-miterlimit="4" stroke-opacity="1" stroke-width="1" marker-end="none" marker-mid="none" marker-start="none" color="#000" display="inline" opacity=".17" overflow="visible" visibility="visible"/><rect stroke-linejoin="miter" style="marker:none" id="rect2279" width="13" height="2" x="14" y="31" fill="#000" fill-opacity="1" fill-rule="evenodd" stroke="none" stroke-dasharray="none" stroke-dashoffset="0" stroke-linecap="butt" stroke-miterlimit="4" stroke-opacity="1" stroke-width="1" marker-end="none" marker-mid="none" marker-start="none" color="#000" display="inline" opacity=".17" overflow="visible" visibility="visible"/></g></svg>