<svg height="512" viewBox="0 0 60 60" width="512" xmlns="http://www.w3.org/2000/svg"><g id="Page-1" fill="none" fill-rule="evenodd"><g id="005---Angry" fill="rgb(0,0,0)" fill-rule="nonzero"><path id="Shape" d="m30 0c-16.5685425 0-30 13.4314575-30 30s13.4314575 30 30 30 30-13.4314575 30-30c-.018737-16.5607751-13.4392249-29.98126296-30-30zm0 58c-15.463973 0-28-12.536027-28-28s12.536027-28 28-28 28 12.536027 28 28c-.0173046 15.4567995-12.5432005 27.9826954-28 28z"/><path id="Shape" d="m30 27h-8c-2.208111.0024799-3.9975201 1.791889-4 4v6c.0011025 1.1041125.8958875 1.9988975 2 2h12c1.1041125-.0011025 1.9988975-.8958875 2-2v-6c-.0024799-2.208111-1.791889-3.9975201-4-4zm-10 4c.0011025-1.1041125.8958875-1.9988975 2-2h8c1.0826527.002025 1.9669665.8655032 1.9948 1.9478-1.8307-.04-5.3965.1391-7.2839 1.95-.8529156.8118901-1.300071 1.9613727-1.22 3.1362.0144082.3253372.0584911.6486794.1317.966h-3.6226zm12 6h-6.3115c-.1144545-.3391848-.1817508-.6924904-.2-1.05-.0586893-.6011243.1651828-1.195407.6059-1.6084 1.2664-1.2166 4.1673-1.4216 5.9056-1.3916z"/><path id="Shape" d="m19.9515 20.48.4674.334c.4495598.3209327 1.0741673.2166598 1.3951-.2329s.2166598-1.0741673-.2329-1.3951l-7-5c-.2908142-.207607-.6702946-.2442963-.9954947-.0962474-.3252001.148049-.5467141.458344-.5811.814s.1235805.7026404.4143947.9102474l.8414.6009c-1.7259471.8297993-2.6189234 2.768807-2.1275482 4.6197556s2.2284989 3.0917382 4.1387597 2.9562258c1.9102609-.1355123 3.4548288-1.6091024 3.6799885-3.5108814zm-3.9515 1.52c-1.1045695 0-2-.8954305-2-2s.8954305-2 2-2c.2213258-.0017669.440933.0389703.6469.12l.9238.66c.2769165.3464345.4282477.7764929.4293 1.22-.0011025 1.1041125-.8958875 1.9988975-2 2z"/><path id="Shape" d="m37.74 16.4149.8414-.6009c.2908142-.207607.4487806-.5545914.4143947-.9102474s-.2558999-.665951-.5811-.814c-.3252001-.1480489-.7046805-.1113597-.9954947.0962474l-7 5c-.4495598.3209327-.5538327.9455402-.2329 1.3951s.9455402.5538327 1.3951.2329l.4674-.334c.2251597 1.901779 1.7697276 3.3753691 3.6799885 3.5108814 1.9102608.1355124 3.6473845-1.1052772 4.1387597-2.9562258s-.4016011-3.7899563-2.1275482-4.6197556zm-1.74 5.5851c-1.1041125-.0011025-1.9988975-.8958875-2-2 .0009393-.4436787.1522768-.8739314.4293-1.2205l.9238-.66c.2060006-.0808589.4256068-.1214261.6469-.1195 1.1045695 0 2 .8954305 2 2s-.8954305 2-2 2z"/></g></g></svg>