<svg height="512" viewBox="0 0 58 58" width="512" xmlns="http://www.w3.org/2000/svg"><g id="Page-1" fill="none" fill-rule="evenodd"><g id="005---Angry" fill-rule="nonzero"><circle id="Oval" cx="29" cy="29" fill="#c03a2b" r="29"/><path id="Shape" d="m55 26c.0006917 11.344082-6.6135605 21.6468997-16.9282719 26.3686497-10.3147115 4.7217501-22.4355903 2.9952854-31.0217281-4.4186497-9.92934165-11.4994972-9.29953422-28.7132474 1.44360919-39.45639081 10.74314341-10.74314341 27.95689361-11.37295084 39.45639081-1.44360919 4.5592425 5.259265 7.0631611 11.9896561 7.05 18.95z" fill="#e64c3c"/><circle id="Oval" cx="15" cy="20" fill="#fff" r="4"/><circle id="Oval" cx="35" cy="20" fill="#fff" r="4"/><circle id="Oval" cx="14" cy="20" fill="#2c3e50" r="2"/><circle id="Oval" cx="34" cy="20" fill="#2c3e50" r="2"/><circle id="Oval" cx="15" cy="18" fill="#fff" r="1"/><circle id="Oval" cx="35" cy="18" fill="#fff" r="1"/><path id="Shape" d="m19.999 20c-.2080149.0001006-.4108391-.064943-.58-.186l-7-5c-.2908142-.207607-.4487806-.5545914-.4143947-.9102474s.2558999-.665951.5811-.814c.3252001-.1480489.7046805-.1113596.9954947.0962474l7 5c.3541269.2527017.5042455.7053624.3712981 1.1195955-.1329473.414233-.5184536.6949859-.9534981.6944045z" fill="#c03a2b"/><path id="Shape" d="m30.001 20c-.435026.0005378-.8204922-.2802302-.9534132-.6944523-.132921-.414222.0172014-.8668566.3713132-1.1195477l7-5c.2908142-.2076071.6702946-.2442963.9954947-.0962474.3252001.148049.5467141.458344.5811.814s-.1235805.7026404-.4143947.9102474l-7 5c-.1691887.1210768-.372051.1861215-.5801.186z" fill="#c03a2b"/><path id="Shape" d="m21 27h8c1.6568542 0 3 1.3431458 3 3v6c0 .5522847-.4477153 1-1 1h-12c-.5522847 0-1-.4477153-1-1v-6c0-1.6568542 1.3431458-3 3-3z" fill="#802f34"/><path id="Shape" d="m32 31v5c-.0015928.5516236-.4483764.9984072-1 1h-7c-.2935233-.6289261-.4665124-1.3073148-.51-2-.24-4.8 8.51-4 8.51-4z" fill="#ff5364"/><path id="Shape" d="m32 31v3c-.0533443.5959485-.5730148 1.0401114-1.17 1h-7.34c-.24-4.8 8.51-4 8.51-4z" fill="#fb7b76"/></g></g></svg>